<svg width="77" height="77" viewBox="0 0 77 77" fill="none" xmlns="http://www.w3.org/2000/svg">
<rect x="0.813904" y="0.653809" width="75.6353" height="75.6353" rx="37.7902" fill="#FFBA49"/>
<path fill-rule="evenodd" clip-rule="evenodd" d="M28.0136 28.6161H53.0714C53.3675 28.6171 53.659 28.6895 53.9211 28.8273C54.1832 28.9651 54.4082 29.1642 54.5768 29.4076C54.7455 29.651 54.8529 29.9315 54.8899 30.2253C54.9269 30.5191 54.8925 30.8175 54.7894 31.0951L49.2887 45.7637C49.0191 46.477 48.3352 46.9519 47.5706 46.9519H32.902C32.163 46.9519 31.4938 46.5063 31.2096 45.8242L22.5129 24.9489H18.2333V21.2817H22.5111C23.2354 21.2801 23.944 21.4936 24.5469 21.8951C25.1498 22.2966 25.6199 22.8681 25.8977 23.5371L28.0136 28.6161ZM42.0699 39.6176H45.737V35.9504H42.0699V32.2832H38.4027V35.9504H34.7355V39.6176H38.4027V43.2847H42.0699V39.6176ZM33.8187 54.2861C35.3377 54.2861 36.5691 53.0548 36.5691 51.5358C36.5691 50.0168 35.3377 48.7854 33.8187 48.7854C32.2997 48.7854 31.0683 50.0168 31.0683 51.5358C31.0683 53.0548 32.2997 54.2861 33.8187 54.2861ZM46.6538 54.2861C48.1727 54.2861 49.4041 53.0548 49.4041 51.5358C49.4041 50.0168 48.1727 48.7854 46.6538 48.7854C45.1348 48.7854 43.9034 50.0168 43.9034 51.5358C43.9034 53.0548 45.1348 54.2861 46.6538 54.2861Z" fill="white"/>
</svg>
