<svg width="99" height="69" viewBox="0 0 99 69" fill="none" xmlns="http://www.w3.org/2000/svg">
<rect x="0.717163" y="0.442139" width="98.1275" height="68.4611" rx="31.3552" fill="#EF4358"/>
<path d="M48.8818 52.3611C49.4023 52.6391 50.0556 52.6373 50.576 52.3593C64.76 44.7398 65.7673 29.853 65.7549 25.6202C65.7536 25.28 65.653 24.9475 65.4656 24.6636C65.2782 24.3797 65.0121 24.1565 64.6998 24.0215L50.4486 17.7085C50.2218 17.6086 49.9766 17.5571 49.7287 17.5574C49.4809 17.5577 49.2358 17.6098 49.0093 17.7103L34.8572 24.0233C34.5495 24.1584 34.2871 24.379 34.1013 24.659C33.9155 24.939 33.8141 25.2665 33.8092 25.6025C33.749 29.8141 34.597 44.7327 48.8818 52.3611ZM43.9001 32.0713L47.9595 36.1307L55.5595 28.5306L58.0628 31.0339L47.9595 41.1372L41.3968 34.5745L43.9001 32.0713Z" fill="white"/>
</svg>
