<svg width="30" height="29" viewBox="0 0 30 29" fill="none" xmlns="http://www.w3.org/2000/svg">
<path d="M28.4153 12.7333C29.5077 12.7333 29.9638 11.3103 29.0764 10.6543L15.5746 0.696761C15.3818 0.553534 15.149 0.476318 14.9099 0.476318C14.6709 0.476318 14.4381 0.553534 14.2453 0.696761L0.743434 10.6543C-0.14396 11.3067 0.312111 12.7333 1.4081 12.7333H3.59653V26.1391H1.05102C0.895458 26.1391 0.768182 26.2682 0.768182 26.4259V28.2898C0.768182 28.4475 0.895458 28.5765 1.05102 28.5765H28.7688C28.9244 28.5765 29.0517 28.4475 29.0517 28.2898V26.4259C29.0517 26.2682 28.9244 26.1391 28.7688 26.1391H26.2233V12.7333H28.4153ZM10.2785 26.1391H6.14204V12.7333H10.2785V26.1391ZM16.9605 26.1391H12.824V12.7333H16.9605V26.1391ZM23.6778 26.1391H19.506V12.7333H23.6778V26.1391Z" fill="#0D3883"/>
</svg>
